<?xml version="1.0" standalone="no"?>
<!DOCTYPE svg PUBLIC "-//W3C//DTD SVG 1.1//EN" "http://www.w3.org/Graphics/SVG/1.1/DTD/svg11.dtd" >
<svg xmlns="http://www.w3.org/2000/svg">
<metadata>
This is a custom SVG webfont generated by Font Squirrel.
Copyright   : eurofurence  19952000 tobias b khler uncitigerdencom
</metadata>
<defs>
<font id="eurofurencebolditalic" horiz-adv-x="1049" >
<font-face units-per-em="2048" ascent="1638" descent="-410" />
<missing-glyph horiz-adv-x="636" />
<glyph unicode=" "  horiz-adv-x="636" />
<glyph unicode="&#x09;" horiz-adv-x="636" />
<glyph unicode="&#xa0;" horiz-adv-x="636" />
<glyph unicode="!" horiz-adv-x="493" d="M0 150q0 68 49.5 116t117.5 48q63 0 107 -43t44 -106q0 -67 -50 -116t-118 -49q-62 0 -106 43.5t-44 106.5zM134 540q0 18 6 37l176 657q25 95 119 95q53 0 92 -35t39 -88q0 -18 -4 -38l-176 -656q-25 -95 -120 -95q-53 0 -92.5 35t-39.5 88z" />
<glyph unicode="&#x22;" horiz-adv-x="874" d="M151 900q0 37 24 73l199 299q39 58 102 58q52 0 92.5 -38t40.5 -89q0 -37 -24 -73l-198 -298q-39 -58 -103 -58q-52 0 -92.5 37.5t-40.5 88.5zM569 900q0 37 24 73l198 299q39 58 103 58q52 0 92.5 -38t40.5 -89q0 -37 -24 -73l-199 -298q-39 -58 -103 -58 q-52 0 -92 37.5t-40 88.5z" />
<glyph unicode="#" horiz-adv-x="1418" d="M45 485q0 56 36 91.5t92 35.5h260l28 104h-193q-56 0 -91.5 35.5t-35.5 91.5t35.5 91.5t91.5 35.5h260l71 264q25 95 119 95q53 0 92.5 -35t39.5 -88q0 -23 -58 -236h94l71 264q25 95 119 95q53 0 92.5 -35t39.5 -88q0 -23 -58 -236h192q56 0 91.5 -35.5t35.5 -91.5 t-36 -91.5t-91 -35.5h-260l-28 -104h192q55 0 91.5 -35.5t36.5 -91.5t-36.5 -91.5t-91.5 -35.5h-261l-70 -263q-25 -95 -120 -96q-53 0 -92 35t-39 88q0 23 58 236h-94l-70 -263q-25 -95 -121 -96q-53 0 -92 35t-39 88q0 23 58 236h-191q-56 0 -92 35.5t-36 91.5zM696 612 h95l27 104h-94z" />
<glyph unicode="$" horiz-adv-x="902" d="M-10 282q0 52 39 87.5t93 35.5q68 0 98 -54q41 -72 55 -82l95 351q-86 35 -135 111t-49 169q0 151 111 276q109 120 261 147q11 48 38 141q25 71 90 71q39 0 68.5 -26t29.5 -65q0 -19 -34 -140q70 -28 121 -90q56 -68 56 -136q0 -52 -39.5 -88t-92.5 -36q-67 0 -100 60 t-71 60q-64 0 -123.5 -55.5t-59.5 -118.5q0 -49 55 -49q152 0 254.5 -98t102.5 -250q0 -180 -137 -327q-133 -143 -314 -171q-11 -48 -38 -141q-25 -71 -89 -71q-40 0 -69 26.5t-29 65.5q0 19 32 136q-167 58 -213 218q-6 24 -6 43zM484 309q115 84 114 194q0 56 -41 79z " />
<glyph unicode="%" horiz-adv-x="1417" d="M-53 130q0 58 50 97l468 370q-130 3 -215.5 88.5t-85.5 215.5q0 168 136 298q134 129 302 129q133 0 221.5 -86t88.5 -218q0 -41 -9 -82l455 359q37 29 80 30q52 0 90.5 -41t38.5 -91q0 -58 -51 -98l-469 -369q130 -3 216 -89t86 -216q0 -168 -135 -297.5t-303 -129.5 q-133 0 -222 86.5t-89 218.5q0 41 10 82l-456 -360q-37 -29 -79 -29q-51 0 -89.5 40.5t-38.5 91.5zM418 901q0 -50 56 -50q62 0 123.5 56t61.5 117q0 50 -57 50q-62 0 -122 -55q-62 -58 -62 -118zM854 305q0 -50 57 -50q62 0 123 56t61 116q0 50 -56 50q-62 0 -123 -55 q-62 -57 -62 -117z" />
<glyph unicode="&#x26;" horiz-adv-x="1141" d="M18 348q0 122 68 235q64 107 169 178q-32 64 -32 139q0 169 135 298.5t304 129.5q133 0 222 -86t89 -218q0 -134 -90 -248q-85 -109 -215 -156l306 -418q26 -37 27 -76q0 -51 -40.5 -89.5t-91.5 -38.5q-50 0 -94 47q-10 10 -66 88q-152 -133 -334 -133q-153 0 -255 98 t-102 250zM273 348q0 -94 102 -93q99 0 183 85l-156 214q-129 -86 -129 -206zM478 900q0 -22 23 -51q17 2 33 2q64 0 124 55.5t60 117.5q0 49 -56 50q-63 0 -123.5 -55.5t-60.5 -118.5z" />
<glyph unicode="'" horiz-adv-x="456" d="M151 900q0 37 24 73l199 299q39 58 102 58q52 0 92.5 -38t40.5 -89q0 -37 -24 -73l-198 -298q-39 -58 -103 -58q-52 0 -92.5 37.5t-40.5 88.5z" />
<glyph unicode="(" horiz-adv-x="536" d="M-6 114q0 509 340 1007q38 56 123 161q46 48 95 48q52 0 92 -39t40 -91q0 -37 -33 -82q-45 -56 -129 -172q-274 -410 -274 -832q0 -129 45 -306q7 -26 7 -43q0 -52 -40 -87.5t-92 -35.5q-81 0 -118 91q-56 135 -56 381z" />
<glyph unicode=")" horiz-adv-x="536" d="M-147 -230q0 37 32 82q45 56 130 173q274 410 274 832q0 129 -46 306q-6 27 -6 42q0 52 41 88q38 35 91 35q80 0 118 -90q56 -135 56 -381q0 -509 -340 -1008q-38 -56 -123 -161q-46 -48 -96 -47q-51 0 -91 38.5t-40 90.5z" />
<glyph unicode="*" d="M41 841q0 53 28 90q31 40 83 40q10 0 149 -16q-31 31 -62 61q-34 40 -34 78q0 52 47 93.5t100 41.5q48 0 80 -42q10 -12 46 -83l20 130q15 95 114 94q53 0 95 -30q46 -34 46 -85q0 -18 -6 -37q52 53 96 54q52 0 93 -44.5t41 -98.5q0 -59 -93 -117q8 2 17 2q50 0 80 -40 q28 -36 28 -87q0 -53 -28 -90q-31 -40 -83 -40q-10 0 -150 16q31 -31 62 -61q34 -40 35 -77q0 -52 -47 -94t-100 -42q-48 0 -80 42q-10 12 -46 83l-20 -129q-15 -95 -115 -95q-53 0 -94 30q-46 34 -46 85q0 18 6 37q-52 -53 -96 -53q-52 0 -93.5 44.5t-41.5 97.5 q0 59 93 117q-8 -2 -16 -2q-50 0 -81 40q-27 35 -27 87z" />
<glyph unicode="+" d="M64 574q0 56 35.5 91.5t91.5 35.5h260l71 265q25 95 119 94q53 0 92.5 -35t39.5 -87q0 -18 -5 -38l-53 -199h192q56 0 91.5 -35.5t35.5 -91.5q0 -55 -36 -91t-91 -36h-260l-71 -263q-25 -95 -119 -95q-53 0 -92 34q-41 36 -41 89q0 18 6 38l53 197h-192q-56 0 -91.5 36 t-35.5 91z" />
<glyph unicode="," horiz-adv-x="446" d="M-123 -124q0 52 51 98q91 83 128 186q35 95 120 95q53 0 92.5 -35t39.5 -88q0 -93 -105 -237q-109 -151 -198 -151q-51 0 -89.5 40.5t-38.5 91.5z" />
<glyph unicode="-" horiz-adv-x="702" d="M45 485q0 56 36 91.5t92 35.5h357q55 0 91.5 -35.5t36.5 -91.5t-36.5 -91.5t-91.5 -35.5h-357q-56 0 -92 35.5t-36 91.5z" />
<glyph unicode="." horiz-adv-x="405" d="M-45 150q0 68 50 116t117 48q64 0 108 -43t44 -106q0 -67 -50 -116t-117 -49q-63 0 -107.5 43.5t-44.5 106.5z" />
<glyph unicode="/" horiz-adv-x="1052" d="M-154 -232q0 41 28 78l1099 1432q40 52 99 53q52 0 92 -39t40 -90q0 -41 -28 -78l-1100 -1433q-40 -52 -98 -52q-52 0 -92 38.5t-40 90.5z" />
<glyph unicode="0" d="M44 433q0 255 182 479q193 237 443 237q177 0 284 -130q101 -122 101 -302q0 -255 -182 -480q-192 -237 -443 -237q-177 0 -284 130q-101 122 -101 303zM298 433q0 -178 131 -178q142 0 261 163q110 152 109 299q0 178 -130 178q-142 0 -261 -163q-110 -152 -110 -299z M442 569q0 45 33.5 77t78.5 32q42 0 71.5 -28.5t29.5 -70.5q0 -45 -33 -78t-79 -33q-42 0 -71.5 30t-29.5 71z" />
<glyph unicode="1" d="M122 127q0 56 35.5 92t91.5 36h121l115 430l-71 -59q-45 -32 -86 -32q-52 0 -90 40.5t-38 91.5q0 58 51 98l361 285q54 42 95 42q53 0 91 -38.5t38 -92.5q0 -9 -11 -52l-192 -713h53q56 0 92 -36t36 -92t-36 -91.5t-92 -35.5h-437q-56 0 -91.5 35.5t-35.5 91.5z" />
<glyph unicode="2" d="M-10 114q0 65 79 121q20 14 171 91q537 274 537 475q0 94 -102 94q-65 0 -129.5 -41t-97.5 -100l-50 -106q-30 -52 -97 -52q-53 0 -92.5 35t-39.5 88q0 18 5 38q44 164 188.5 278t312.5 114q152 0 254.5 -98t102.5 -250q0 -195 -145 -333q-60 -57 -309 -213h155 q56 0 92 -36t36 -92t-36 -91.5t-92 -35.5h-596q-57 0 -99 27q-48 32 -48 87z" />
<glyph unicode="3" d="M-16 117q0 52 40 87.5t93 35.5q72 0 113 -82t123 -82q107 0 204 89.5t97 196.5q0 115 -125 115q-67 0 -147.5 -50t-116.5 -50q-52 0 -89.5 39t-37.5 90q0 63 58 106l385 283h-225q-56 0 -91.5 35.5t-35.5 91.5t36 91.5t91 35.5h613q57 0 98 -26q48 -31 48 -85 q0 -66 -71 -119l-320 -236q185 -101 184 -321q0 -212 -171.5 -376.5t-383.5 -164.5q-126 0 -224 67q-103 69 -138 186q-7 23 -7 43z" />
<glyph unicode="4" d="M-21 287q0 53 50 106l669 716q52 56 113 56q49 0 81 -37q29 -35 28 -86q0 -25 -7 -53l-149 -556h73q56 0 91.5 -35.5t35.5 -91.5t-36 -91.5t-91 -35.5h-141l-71 -263q-25 -95 -119 -96q-53 0 -92 35t-39 89q0 18 4 37l54 198h-312q-56 0 -96 25q-46 30 -46 83zM414 433 h87l34 130z" />
<glyph unicode="5" d="M-33 132q0 52 40 87.5t92 35.5q63 0 94 -47l50 -86q37 -47 115 -46q121 0 230 101t109 222q0 138 -147 138q-138 0 -254 -126q-51 -55 -101 -55q-53 0 -93 38t-40 90q0 21 17 62l218 514q38 90 118 90l589 -1q55 0 91 -35.5t36 -91.5t-36 -91.5t-91 -35.5h-501l-47 -112 q47 9 94 8q172 0 286.5 -110.5t114.5 -281.5q0 -226 -183 -402t-410 -176q-134 0 -238 70q-109 74 -145 199q-8 22 -8 42z" />
<glyph unicode="6" d="M26 392q0 74 28 164q100 321 391 545q297 227 629 227q56 0 91.5 -35.5t35.5 -91.5t-36 -91.5t-91 -35.5q-189 0 -377 -110q146 -25 235.5 -131.5t89.5 -254.5q0 -226 -183.5 -402t-410.5 -176q-172 0 -286 110q-116 111 -116 282zM281 392q0 -138 147 -137 q122 0 231 101t109 222q0 138 -148 138q-122 0 -230.5 -101.5t-108.5 -222.5z" />
<glyph unicode="7" d="M32 -52q0 43 30 80l698 867h-450q-56 0 -91.5 35.5t-35.5 91.5t36 91.5t91 35.5h716q56 0 95 -24q45 -29 44 -83q0 -49 -40 -100l-865 -1073q-40 -50 -96 -50q-52 0 -92 39t-40 90z" />
<glyph unicode="8" d="M73 348q0 122 68 235q64 107 169 178q-32 64 -32 139q0 169 135 298.5t304 129.5q132 0 221.5 -86t89.5 -218q0 -179 -150 -311q67 -90 67 -210q0 -196 -159 -349.5t-357 -153.5q-153 0 -254.5 98t-101.5 250zM328 348q0 -94 101 -93q92 0 176.5 78t84.5 170 q0 94 -101 94q-92 0 -176.5 -79t-84.5 -170zM533 900q0 -49 56 -49q64 0 124 55.5t60 117.5q0 49 -56 50q-63 0 -123.5 -55.5t-60.5 -118.5z" />
<glyph unicode="9" d="M-103 -52q0 56 35.5 92t91.5 36q190 0 377 109q-146 25 -235.5 131.5t-89.5 254.5q0 226 184 403q182 175 410 175q172 0 286.5 -110.5t114.5 -281.5q0 -74 -28 -164q-99 -321 -391 -544q-296 -227 -628 -228q-56 0 -91.5 35.5t-35.5 91.5zM330 571q0 -138 148 -138 q121 0 230 101.5t109 222.5q0 138 -147 138q-122 0 -229 -101q-111 -102 -111 -223z" />
<glyph unicode=":" horiz-adv-x="405" d="M-45 150q0 68 50 116t117 48q64 0 108 -43t44 -106q0 -67 -50 -116t-117 -49q-63 0 -107.5 43.5t-44.5 106.5zM131 806q0 68 50 116t117 48q64 0 108 -43t44 -105q0 -67 -50 -116.5t-118 -49.5q-63 0 -107 43.5t-44 106.5z" />
<glyph unicode=";" horiz-adv-x="477" d="M-123 -124q0 52 51 98q91 83 128 186q35 95 120 95q53 0 92.5 -35t39.5 -88q0 -93 -105 -237q-109 -151 -198 -151q-51 0 -89.5 40.5t-38.5 91.5zM204 806q0 68 49.5 116t117.5 48q63 0 107.5 -43t44.5 -105q0 -67 -50.5 -116.5t-116.5 -49.5q-63 0 -107.5 43.5 t-44.5 106.5z" />
<glyph unicode="&#x3c;" d="M60 574q0 83 99 127l790 348q28 13 56 13q52 0 88 -40.5t36 -93.5q0 -78 -78 -112l-582 -257l403 -232q65 -37 65 -106q0 -52 -37 -93t-89 -41q-33 0 -67 20l-598 346q-86 49 -86 121z" />
<glyph unicode="=" d="M16 395q0 56 35.5 92t91.5 36h716q56 0 91.5 -36t35.5 -92q0 -55 -35.5 -91t-91.5 -36h-716q-56 0 -91.5 36t-35.5 91zM111 753q0 56 36.5 91.5t91.5 35.5h715q56 0 92 -35.5t36 -91.5q0 -55 -36 -91t-92 -36h-715q-55 0 -91.5 36t-36.5 91z" />
<glyph unicode="&#x3e;" d="M-30 221q0 78 77 112l581 257l-402 232q-65 37 -65 106q0 52 37 93t88 41q34 0 67 -19l599 -346q86 -49 86 -122q0 -83 -99 -126l-789 -349q-29 -13 -56 -13q-52 0 -88 41t-36 93z" />
<glyph unicode="?" horiz-adv-x="819" d="M163 152q0 67 50 114.5t117 47.5q61 0 106.5 -43t45.5 -103q0 -68 -50 -118t-118 -50q-64 0 -107.5 44t-43.5 108zM166 589q0 124 99 217q96 92 221 93q53 0 114 40q66 44 66 94q0 41 -64 41q-115 0 -173 -121q-22 -46 -47 -60q-21 -11 -73 -11q-132 0 -132 99q0 17 6 39 q36 137 157 223q119 85 262 85q137 0 223 -72q91 -77 90 -212q0 -171 -129 -288q-126 -112 -298 -112q-27 0 -51 -26q19 6 43 6q133 0 132 -116q0 -76 -66 -118q-56 -36 -137 -36q-102 0 -172.5 66.5t-70.5 168.5z" />
<glyph unicode="@" horiz-adv-x="1303" d="M72 525q0 312 276 561q268 243 583 242q185 0 308.5 -118.5t123.5 -302.5q0 -165 -149 -329q-122 -134 -299 -221q-125 -63 -197 -63q-140 0 -230 81q-95 84 -96 222q0 119 96 232q82 97 202 156q97 49 167 49q157 0 250 -100q-8 71 -56.5 113.5t-119.5 42.5 q-238 0 -418 -163q-186 -168 -186 -402q0 -125 97 -208q93 -79 219 -78q161 0 287 74q34 24 68 47q41 26 78 27q47 0 83 -32t36 -78q0 -68 -131 -149q-209 -128 -421 -128q-233 0 -398 144q-173 151 -173 381zM647 597q0 -64 72 -64t140 63t68 135q0 64 -70 64 q-73 0 -141.5 -63t-68.5 -135z" />
<glyph unicode="A" horiz-adv-x="1416" d="M-56 126q0 41 28 78l810 1055q54 71 114 71q77 0 113 -65q8 -14 19 -59l243 -1050q4 -17 4 -34q0 -53 -39 -87.5t-92 -34.5q-98 0 -121 99l-61 259h-552l-236 -308q-40 -52 -98 -52q-52 0 -92 38t-40 90zM606 612h298l-70 298z" />
<glyph unicode="B" horiz-adv-x="1019" d="M27 123q0 18 9 52l282 1051q27 103 133 102h290q132 0 221 -86t89 -218q0 -177 -149 -311q68 -90 68 -210q0 -197 -159.5 -350.5t-357.5 -153.5h-284q-60 0 -99 31q-43 34 -43 93zM321 254h132q93 0 177.5 78t84.5 171q0 94 -102 94h-200zM481 851h132q64 0 124 55 t60 118q0 49 -56 50h-200z" />
<glyph unicode="C" horiz-adv-x="1262" d="M74 525q0 313 258 559q255 244 568 244q129 0 247 -52q130 -56 194 -157q26 -41 26 -76q0 -52 -40 -90t-92 -38q-43 0 -87 41q-69 64 -88 76q-65 41 -160 42q-208 0 -389 -170q-183 -173 -183 -379q0 -125 81 -199q78 -72 204 -71q142 0 275 82q35 25 70 49q43 28 78 28 q51 0 89.5 -40.5t38.5 -91.5q0 -74 -132 -156q-208 -126 -419 -126q-232 0 -385 146q-154 148 -154 379z" />
<glyph unicode="D" horiz-adv-x="1317" d="M27 122q0 18 10 55l280 1048q28 104 122 104l362 -1q231 0 385 -147t154 -378q0 -312 -258 -559q-255 -244 -569 -244l-355 -1q-53 0 -92 35t-39 88zM321 255h192q208 0 389 169q184 173 184 379q0 125 -81 199q-78 72 -204 72h-260z" />
<glyph unicode="E" horiz-adv-x="1019" d="M27 123q0 18 9 52l282 1051q27 103 133 102h589q56 0 91.5 -35.5t35.5 -91.5t-36 -91.5t-91 -35.5h-499l-77 -283h312q56 0 92 -35.5t36 -91.5t-36 -91.5t-92 -35.5h-379l-76 -282h431q56 0 91.5 -36t35.5 -92t-36 -91.5t-91 -35.5h-599q-52 0 -89 35.5t-37 87.5z" />
<glyph unicode="F" horiz-adv-x="1019" d="M27 122q0 18 6 38l287 1074q9 33 49 63.5t74 30.5h597q56 0 91.5 -35.5t35.5 -91.5t-36 -91.5t-91 -35.5h-499l-77 -283h312q56 0 92 -35.5t36 -91.5t-36 -91.5t-92 -35.5h-379l-119 -442q-25 -95 -120 -96q-52 0 -91.5 35t-39.5 88z" />
<glyph unicode="G" horiz-adv-x="1301" d="M74 525q0 312 258 559q255 244 568 244q129 0 247 -51q129 -57 194 -158q26 -41 26 -76q0 -52 -40 -90t-92 -38q-42 0 -87 41q-69 64 -88 76q-66 41 -160 42q-208 0 -389 -170q-183 -173 -183 -379q0 -125 81 -199q78 -72 204 -71q158 0 310 105l90 337q25 95 120 95 q53 0 92.5 -35t39.5 -88q0 -17 -66 -266q-12 -51 -42 -152q-36 -107 -236 -184q-171 -67 -308 -67q-232 0 -385 146q-154 148 -154 379z" />
<glyph unicode="H" horiz-adv-x="1217" d="M27 122q0 18 6 38l287 1074q25 95 119 95q53 0 92.5 -35t39.5 -88q0 -18 -6 -38l-101 -377h453l119 443q25 95 119 95q53 0 92.5 -35t39.5 -88q0 -18 -6 -38l-287 -1073q-25 -95 -120 -96q-52 0 -91.5 35t-39.5 88q0 18 5 38l101 377h-452l-119 -442q-25 -95 -120 -96 q-52 0 -91.5 35t-39.5 88z" />
<glyph unicode="I" horiz-adv-x="493" d="M-25 122q0 18 5 38l287 1074q25 95 120 95q53 0 92.5 -35t39.5 -88q0 -18 -6 -38l-287 -1073q-25 -95 -119 -96q-53 0 -92.5 35t-39.5 88z" />
<glyph unicode="J" horiz-adv-x="601" d="M-383 -106q0 52 39.5 87.5t92.5 35.5q69 0 101 -60t70 -60q58 0 111 44t68 100l320 1193q25 95 119 95q53 0 92.5 -35t39.5 -88q0 -18 -5 -38l-320 -1193q-37 -140 -158 -236q-123 -97 -267 -97q-102 0 -184 56q-85 58 -112 154q-7 24 -7 42z" />
<glyph unicode="K" horiz-adv-x="1224" d="M27 122q0 18 6 38l287 1074q25 95 119 95q53 0 92.5 -35t39.5 -88q0 -18 -6 -38l-119 -446q13 23 37 42l681 537q37 29 79 30q51 0 89.5 -41t38.5 -91q0 -58 -50 -98l-585 -461l321 -437q27 -37 27 -77q0 -51 -40.5 -89.5t-92.5 -38.5q-60 0 -99 54l-393 537 q-28 39 -27 80l-154 -574q-25 -95 -120 -96q-52 0 -91.5 35t-39.5 88z" />
<glyph unicode="L" horiz-adv-x="1019" d="M27 123q0 18 9 52l284 1059q25 95 119 95q53 0 92.5 -35t39.5 -88q0 -18 -6 -38l-244 -913h431q56 0 91.5 -36t35.5 -92t-36 -91.5t-91 -35.5h-599q-52 0 -89 35.5t-37 87.5z" />
<glyph unicode="M" horiz-adv-x="1534" d="M-56 123q0 29 15 60l517 1055q45 91 121 91q53 0 91.5 -35.5t40.5 -89.5q0 -5 0 -4l80 -502l390 559q50 72 113 73q54 0 93 -37.5t39 -91.5q0 -5 -1 -13.5t-2 -11.5l-48 -1054q-2 -53 -37.5 -87.5t-88.5 -34.5q-58 0 -94 34q-34 33 -34 87v5v7l29 634l-316 -454 q-52 -76 -116 -76q-54 0 -92.5 37t-39.5 90q0 6 0 5l-66 416l-350 -713q-36 -73 -111 -74q-52 0 -92.5 36.5t-40.5 88.5z" />
<glyph unicode="N" horiz-adv-x="1257" d="M-52 122q0 18 5 38l282 1051q31 118 130 118q76 0 123 -91l385 -758l202 754q25 95 120 95q53 0 92.5 -35t39.5 -88q0 -18 -6 -38l-281 -1051q-31 -118 -131 -118q-76 0 -122 91l-386 758l-202 -753q-25 -95 -120 -96q-53 0 -92 35t-39 88z" />
<glyph unicode="O" horiz-adv-x="1418" d="M74 525q0 313 258 559q255 244 569 244q231 0 384 -145q155 -149 155 -380q0 -313 -258 -559q-255 -244 -569 -244q-232 0 -385 146q-154 148 -154 379zM328 525q0 -125 81 -199q78 -72 204 -71q208 0 389 169q184 173 184 379q0 125 -81 199q-78 72 -204 72 q-208 0 -389 -170q-184 -172 -184 -379z" />
<glyph unicode="P" horiz-adv-x="1019" d="M27 122q0 18 6 38l287 1074q9 33 49 63.5t74 30.5h298q152 0 254.5 -98t102.5 -250q0 -197 -159.5 -350t-357.5 -153h-200l-103 -382q-25 -95 -120 -96q-52 0 -91.5 35t-39.5 88zM449 732h132q92 0 177 78t85 170q0 94 -102 94h-200z" />
<glyph unicode="Q" horiz-adv-x="1418" d="M74 525q0 313 258 559q255 244 569 244q231 0 384 -145q155 -149 155 -380q0 -264 -191 -489q-184 -216 -446 -288q73 -130 251 -129q56 0 91.5 -36t35.5 -92t-36 -91.5t-91 -35.5q-181 0 -321 95q-146 99 -195 268q-207 25 -335.5 168.5t-128.5 351.5zM328 525 q0 -96 51 -165q52 -71 143 -94q25 169 136 169q52 0 91 -40t39 -92q0 -8 -1 -15q161 61 276 201q123 150 123 314q0 125 -81 199q-78 72 -204 72q-208 0 -390 -170q-183 -172 -183 -379z" />
<glyph unicode="R" horiz-adv-x="1021" d="M27 122q0 18 6 38l284 1065q28 104 122 104l302 -1q151 0 254 -98.5t103 -249.5q0 -179 -136 -326q-133 -143 -313 -171l205 -280q27 -37 27 -77q0 -51 -40.5 -89.5t-92.5 -38.5q-60 0 -99 54l-280 382l-91 -339q-25 -95 -120 -96q-52 0 -91.5 35.5t-39.5 87.5zM449 732 h132q92 0 177 78t85 170q0 94 -102 94h-200z" />
<glyph unicode="S" horiz-adv-x="901" d="M-10 282q0 52 39 87.5t93 35.5q71 0 109 -75t105 -75q92 0 177 78t85 170q0 94 -102 94q-132 0 -221 86t-89 217q0 169 134.5 298.5t303.5 129.5q103 0 184 -55.5t112 -151.5q6 -22 7 -43q0 -52 -39.5 -88t-92.5 -36q-67 0 -100 60t-71 60q-64 0 -123.5 -55.5 t-59.5 -118.5q0 -49 55 -49q152 0 254.5 -98t102.5 -250q0 -197 -159.5 -350t-357.5 -153q-119 0 -210 63q-95 65 -130 176q-6 22 -6 43z" />
<glyph unicode="T" horiz-adv-x="1020" d="M237 1201q0 56 36 91.5t91 35.5h716q56 0 91.5 -35.5t35.5 -91.5t-36 -91.5t-91 -35.5h-261l-261 -979q-25 -95 -121 -96q-53 0 -92 35t-39 88q0 18 5 38l245 914h-192q-56 0 -91.5 35.5t-35.5 91.5z" />
<glyph unicode="U" horiz-adv-x="1138" d="M72 392q0 62 16 126l192 716q25 95 119 95q53 0 92.5 -35t39.5 -88q0 -18 -5 -38l-192 -715q-8 -32 -8 -61q0 -138 147 -137q107 0 206 80q97 78 125 184l192 715q25 95 119 95q53 0 92.5 -35t39.5 -88q0 -18 -5 -38l-192 -715q-51 -189 -216.5 -321t-360.5 -132 q-172 0 -286.5 110.5t-114.5 281.5z" />
<glyph unicode="V" horiz-adv-x="1376" d="M237 1206q0 52 39 87t92 35q98 0 121 -98l189 -812l660 860q40 52 98 53q52 0 92 -39t40 -90q0 -41 -28 -78l-811 -1056q-54 -71 -112 -70q-77 0 -113 64q-9 16 -19 60l-244 1050q-4 18 -4 34z" />
<glyph unicode="W" horiz-adv-x="1954" d="M237 1206q0 52 39 87t92 35q98 0 121 -98l189 -812l211 276l-111 478q-4 17 -4 34q0 52 39 87t92 35q98 0 121 -98l64 -275l248 323q40 52 98 53q52 0 92 -39t40 -90q0 -41 -28 -78l-376 -489l50 -217l661 860q40 52 97 53q52 0 92.5 -39t40.5 -90q0 -41 -28 -78 l-811 -1056q-54 -71 -112 -70q-76 0 -113 64q-9 15 -19 60l-59 251l-234 -305q-54 -71 -112 -70q-76 0 -113 64q-9 15 -19 60l-244 1050q-4 18 -4 34z" />
<glyph unicode="X" horiz-adv-x="1182" d="M-52 129q0 51 42 91l493 470l-231 453q-16 31 -16 62q0 51 41 88t93 37q73 0 109 -71l196 -385l438 419q40 37 87 38q52 0 91.5 -40t39.5 -92q0 -51 -43 -90l-493 -471l232 -453q15 -31 15 -62q0 -51 -40.5 -88t-92.5 -37q-73 0 -110 71l-195 385l-438 -419 q-40 -37 -87 -37q-52 0 -91.5 39.5t-39.5 91.5z" />
<glyph unicode="Y" horiz-adv-x="1138" d="M236 1205q0 51 41 88t93 37q73 0 109 -71l196 -385l438 419q40 37 87 38q51 0 91 -40t40 -92q0 -51 -43 -90l-535 -512l-134 -502q-25 -95 -120 -96q-52 0 -92 35.5t-40 87.5q0 18 5 38l131 490l-251 493q-16 31 -16 62z" />
<glyph unicode="Z" horiz-adv-x="1179" d="M-53 129q0 51 57 106l878 839h-518q-56 0 -91.5 36t-35.5 91t36 91t91 36h812q3 0 11 1.5t12 1.5q52 0 90.5 -39t38.5 -93q0 -51 -57 -105l-877 -839h517q55 0 91.5 -36.5t36.5 -91.5t-36.5 -91t-91.5 -36h-812q-4 0 -11 -1t-11 -1q-52 0 -91 39t-39 92z" />
<glyph unicode="[" horiz-adv-x="781" d="M-68 -235q0 18 8 52l378 1409q27 103 133 102h350q56 0 91.5 -35.5t35.5 -91.5t-35.5 -91.5t-91.5 -35.5h-260l-316 -1177h192q56 0 91.5 -36t35.5 -92t-36 -91.5t-91 -35.5h-361q-52 0 -88 35.5t-36 87.5z" />
<glyph unicode="\" horiz-adv-x="1062" d="M237 1206q0 53 39 87.5t92 34.5q98 0 121 -98l332 -1433q5 -17 5 -33q0 -53 -39 -88t-93 -35q-98 0 -121 99l-332 1432q-4 18 -4 34z" />
<glyph unicode="]" horiz-adv-x="781" d="M-147 -231q0 56 36 92t91 36h261l315 1177h-192q-56 0 -91.5 35.5t-35.5 91.5t36 91.5t91 35.5h361q52 0 88.5 -35.5t36.5 -87.5q0 -18 -9 -52l-377 -1408q-28 -103 -134 -103h-350q-55 0 -91 35.5t-36 91.5z" />
<glyph unicode="^" horiz-adv-x="820" d="M169 965q0 58 50 98l302 237q38 30 80 31q62 0 103 -56l173 -237q27 -37 27 -77q0 -51 -40.5 -89t-92.5 -38q-60 0 -99 53l-96 133l-200 -158q-37 -29 -79 -29q-51 0 -89.5 40.5t-38.5 91.5z" />
<glyph unicode="_" horiz-adv-x="1060" d="M-83 8q0 56 36 91.5t92 35.5h715q56 0 92 -35.5t36 -91.5t-36 -91.5t-92 -35.5h-715q-56 0 -92 35.5t-36 91.5z" />
<glyph unicode="`" horiz-adv-x="465" d="M237 1205q0 53 38 88t92 35q110 0 124 -110l39 -299q2 -10 2 -20q0 -53 -37.5 -88.5t-92.5 -35.5q-110 0 -124 111l-39 298q-2 11 -2 21z" />
<glyph unicode="a" horiz-adv-x="1058" d="M22 363q0 59 16 115q56 206 235 348q181 144 392 144q110 0 215 -48q130 -60 131 -157q0 -14 -10 -48l-166 -622q-25 -95 -119 -96q-67 0 -108 51q-106 -50 -214 -50q-159 0 -265.5 102.5t-106.5 260.5zM277 362q0 -107 117 -107q91 0 175 68q82 66 105 155l62 229 q-33 9 -71 9q-122 0 -236.5 -91.5t-144.5 -211.5q-7 -30 -7 -51z" />
<glyph unicode="b" horiz-adv-x="1020" d="M44 304q0 55 19 129q18 63 36 125l181 676q25 95 119 95q53 0 92.5 -35.5t39.5 -87.5q0 -18 -5 -38l-60 -225q79 27 159 27q159 0 265.5 -102.5t106.5 -259.5q0 -235 -206 -424q-200 -184 -437 -184q-132 0 -221 86.5t-89 217.5zM299 313q0 -59 55 -58q133 0 258 110 q130 115 130 243q0 108 -117 108q-93 0 -174 -68q-76 -64 -106 -156q-46 -139 -46 -179z" />
<glyph unicode="c" horiz-adv-x="955" d="M32 392q0 227 184 403q182 175 410 175q95 0 183 -39q97 -43 144 -117q27 -42 27 -77q0 -52 -40 -90t-93 -38q-47 0 -98.5 53.5t-122.5 53.5q-122 0 -231 -101.5t-109 -222.5q0 -138 148 -137q72 0 162 53t119 53q52 0 90.5 -40.5t38.5 -91.5q0 -52 -51 -98 q-65 -59 -169 -95q-99 -36 -190 -36q-173 0 -286 110q-116 111 -116 282z" />
<glyph unicode="d" horiz-adv-x="1060" d="M24 363q0 235 205 424q200 184 437 183q66 0 136 -19l76 283q25 95 119 95q53 0 92.5 -35.5t39.5 -87.5q0 -18 -5 -38l-288 -1073q-25 -95 -119 -96q-66 0 -107 51q-106 -50 -215 -50q-159 0 -265 102.5t-106 260.5zM278 362q0 -107 117 -107q91 0 175 67q81 67 105 156 l61 229q-32 9 -70 9q-123 0 -237 -91.5t-144 -211.5q-7 -30 -7 -51z" />
<glyph unicode="e" horiz-adv-x="870" d="M32 392q0 227 184 404q182 174 411 174q107 0 180 -71.5t73 -178.5q0 -158 -177 -291q-107 -80 -319 -169q24 -6 50 -5q32 0 91 21t91 21q51 0 87.5 -40.5t36.5 -92.5q0 -86 -116 -131q-86 -33 -190 -33q-172 0 -287 110.5t-115 281.5zM321 524l248 115q49 23 49 70v4v8 q-23 5 -46 5q-87 0 -158 -60q-64 -55 -93 -142z" />
<glyph unicode="f" horiz-adv-x="790" d="M31 -235q0 18 6 37l245 914q-141 0 -141 127q0 56 36 91.5t91 35.5h81l23 85q32 119 130 196t220 77q83 0 158 -48q84 -55 84 -132q0 -52 -40.5 -90t-92.5 -38q-60 0 -99 54h-10h-3q-80 0 -106 -104q140 0 140 -127q0 -56 -35.5 -91.5t-91.5 -35.5h-81l-263 -979 q-25 -95 -119 -96q-53 0 -91 35q-41 37 -41 89z" />
<glyph unicode="g" horiz-adv-x="938" d="M-80 -10q0 80 29 135q37 70 109 70q51 0 89 -36.5t38 -87.5q0 -14 -5.5 -40.5t-5.5 -40.5q0 -94 102 -93q92 0 177 78t85 170q0 94 -102 94q-132 0 -221 86t-89 217q0 169 134 298.5t304 129.5h298q55 0 91 -35.5t36 -91.5q0 -52 -33 -88.5t-86 -38.5q4 -25 4 -50 q0 -179 -149 -310q67 -90 67 -211q0 -197 -159 -350t-357 -153q-152 0 -254 98t-102 250zM380 542q0 -49 56 -49q63 0 123.5 55.5t60.5 117.5q0 49 -56 50q-64 0 -124 -55.5t-60 -118.5z" />
<glyph unicode="h" horiz-adv-x="939" d="M27 122q0 18 6 38l287 1074q25 95 119 95q53 0 92.5 -35.5t39.5 -87.5q0 -18 -6 -38l-54 -205q37 7 74 7q132 0 221.5 -86t89.5 -218q0 -47 -13 -94l-127 -477q-25 -95 -121 -96q-52 0 -91.5 35.5t-39.5 87.5q0 18 6 38l127 477q4 16 4 29q0 49 -56 50q-57 0 -110.5 -44 t-68.5 -100l-128 -477q-25 -95 -120 -96q-52 0 -91.5 35.5t-39.5 87.5z" />
<glyph unicode="i" horiz-adv-x="493" d="M22 122q0 18 6 38l192 716q25 95 119 95q53 0 92.5 -35.5t39.5 -87.5q0 -18 -6 -38l-191 -715q-25 -95 -120 -96q-53 0 -91 35q-41 36 -41 88zM270 1163q0 67 50.5 116t117.5 49q64 0 107.5 -43.5t43.5 -107.5q0 -67 -49.5 -115t-117.5 -48q-63 0 -107.5 43t-44.5 106z " />
<glyph unicode="j" horiz-adv-x="493" d="M-347 -187q0 54 30 99q33 52 85 51q55 0 102 -66h10h2q33 0 63 24q31 25 39 60l240 895q25 95 120 95q53 0 92 -35.5t39 -87.5q0 -18 -5 -38l-240 -894q-31 -116 -131 -195t-219 -79q-93 0 -154 38q-73 46 -73 133zM275 1163q0 67 50 116t118 49q62 0 106.5 -43.5 t44.5 -106.5q0 -68 -49.5 -116t-117.5 -48q-64 0 -108 43t-44 106z" />
<glyph unicode="k" horiz-adv-x="1045" d="M27 122q0 18 6 38l287 1074q25 95 119 95q53 0 92.5 -35.5t39.5 -87.5q0 -18 -6 -38l-167 -625q13 23 37 42l453 358q37 29 80 30q52 0 90.5 -40.5t38.5 -91.5q0 -58 -51 -98l-357 -282l189 -258q27 -37 27 -77q0 -51 -40.5 -89.5t-92.5 -38.5q-60 0 -99 54l-262 358 q-27 36 -27 76v4l-106 -395q-25 -95 -120 -96q-52 0 -91.5 35.5t-39.5 87.5z" />
<glyph unicode="l" horiz-adv-x="562" d="M29 260q0 39 12 79l239 895q25 95 119 95q53 0 92.5 -35.5t39.5 -87.5q0 -18 -5 -38l-238 -888q-2 -6 -3 -18q3 -7 9 -7q56 0 92 -36t36 -92t-36 -91.5t-92 -35.5q-112 0 -188.5 74t-76.5 186z" />
<glyph unicode="m" horiz-adv-x="1416" d="M27 122q0 18 6 38l191 716q25 95 120 95q50 0 88 -32q76 31 153 31q134 0 224 -87q119 87 254 87q132 0 221 -86t89 -218q0 -47 -13 -94l-127 -477q-25 -95 -120 -96q-52 0 -92 35.5t-40 87.5q0 18 6 38l127 477q4 16 4 29q0 49 -55 50q-57 0 -111 -44t-69 -100 l-127 -477q-25 -95 -121 -96q-52 0 -91.5 35.5t-39.5 87.5q0 18 6 38l127 477q4 16 4 29q0 49 -56 50q-57 0 -110.5 -44t-68.5 -100l-128 -477q-25 -95 -120 -96q-52 0 -91.5 35.5t-39.5 87.5z" />
<glyph unicode="n" horiz-adv-x="939" d="M27 122q0 18 6 38l191 716q25 95 120 95q50 0 88 -32q76 31 153 31q132 0 221.5 -86t89.5 -218q0 -47 -13 -94l-127 -477q-25 -95 -121 -96q-52 0 -91.5 35.5t-39.5 87.5q0 18 6 38l127 477q4 16 4 29q0 49 -56 50q-57 0 -110.5 -44t-68.5 -100l-128 -477 q-25 -95 -120 -96q-52 0 -91.5 35.5t-39.5 87.5z" />
<glyph unicode="o" horiz-adv-x="1059" d="M32 392q0 227 184 403q182 175 410 175q172 0 287 -110.5t115 -281.5q0 -227 -183.5 -402.5t-410.5 -175.5q-172 0 -287 110.5t-115 281.5zM286 392q0 -138 148 -137q121 0 230 101t109 222q0 138 -147 138q-122 0 -231 -101.5t-109 -222.5z" />
<glyph unicode="p" horiz-adv-x="1060" d="M-69 -235q0 18 5 37l288 1074q25 95 120 95q66 0 106 -51q106 50 215 50q159 0 265 -102.5t106 -260.5q0 -235 -205 -423q-200 -184 -437 -184q-66 0 -136 19l-76 -282q-25 -95 -119 -96q-53 0 -92 35q-40 37 -40 89zM324 263q32 -9 70 -8q123 0 237 91t144 212 q7 29 8 50q0 107 -118 108q-91 0 -173.5 -67.5t-106.5 -156.5z" />
<glyph unicode="q" horiz-adv-x="1060" d="M24 363q0 235 205 424q200 184 437 183q110 0 216 -48q130 -60 130 -157q0 -14 -9 -48l-263 -980q-25 -95 -119 -96q-53 0 -92.5 35.5t-39.5 88.5q0 18 6 37l59 225q-80 -27 -159 -27q-159 0 -265 102.5t-106 260.5zM278 362q0 -107 117 -107q91 0 175 67q81 67 105 156 l61 229q-32 9 -70 9q-123 0 -237 -91.5t-144 -211.5q-7 -30 -7 -51z" />
<glyph unicode="r" horiz-adv-x="758" d="M27 122q0 18 6 38l191 716q25 95 120 95q38 0 71 -20q55 19 111 19q87 0 157 -48.5t96 -130.5q6 -22 6 -43q0 -52 -39.5 -87.5t-92.5 -35.5q-89 0 -118 90q-6 1 -9 1q-33 0 -64.5 -26.5t-39.5 -58.5l-144 -536q-25 -95 -120 -96q-52 0 -91.5 35.5t-39.5 87.5z" />
<glyph unicode="s" horiz-adv-x="749" d="M-14 265q0 54 37 89t92 35q60 0 85 -30q8 -10 39 -83q10 -21 33 -21q49 0 93.5 40.5t45.5 90.5q-10 6 -37 8q-109 9 -173 73q-66 67 -66 174q0 126 100 227.5t225 101.5q89 0 160 -58q77 -61 78 -148q0 -52 -40 -87.5t-93 -35.5q-80 0 -112 74q-49 -18 -64 -67 q119 -4 198 -78q81 -77 81 -195q0 -153 -122 -265q-119 -110 -274 -110q-114 0 -199 75q-87 78 -87 190z" />
<glyph unicode="t" horiz-adv-x="830" d="M141 843q0 56 36 91.5t91 35.5h81l71 264q25 95 119 95q53 0 92.5 -35.5t39.5 -87.5q0 -18 -5 -38l-53 -198q140 0 140 -127q0 -56 -35.5 -91.5t-91.5 -35.5h-81l-117 -436q-2 -6 -3 -18h2q34 0 76 23q44 24 73 24q51 0 89.5 -40.5t38.5 -91.5q0 -77 -100 -132 q-85 -45 -170 -45q-112 0 -188.5 74.5t-76.5 185.5q0 39 12 79l101 377q-141 0 -141 127z" />
<glyph unicode="u" horiz-adv-x="899" d="M44 304q0 47 12 94l129 478q25 95 119 95q53 0 92 -35.5t39 -87.5q0 -18 -5 -38l-128 -478q-4 -15 -4 -28q0 -49 56 -49q58 0 111.5 43.5t68.5 99.5l128 478q25 95 119 95q53 0 92 -35.5t39 -87.5q0 -18 -5 -38l-128 -477q-37 -141 -158.5 -237t-266.5 -96 q-132 0 -221 86.5t-89 217.5z" />
<glyph unicode="v" horiz-adv-x="1058" d="M142 848q0 53 38.5 87.5t92.5 34.5q98 0 120 -98l106 -454l385 502q40 52 98 53q52 0 92.5 -38.5t40.5 -90.5q0 -41 -29 -78l-535 -697q-54 -71 -114 -71q-77 0 -113 66q-9 15 -18 58l-160 692q-4 18 -4 34z" />
<glyph unicode="w" horiz-adv-x="1535" d="M142 848q0 53 38.5 87.5t92.5 34.5q98 0 120 -98l106 -454l165 216l-41 180q-4 17 -4 34q0 53 38.5 87.5t92.5 34.5q98 0 120 -98l106 -454l386 502q40 52 97 53q52 0 92.5 -38.5t40.5 -90.5q0 -41 -28 -78l-536 -697q-54 -71 -114 -71q-76 0 -112 66q-8 14 -19 58 l-44 191l-188 -244q-54 -71 -114 -71q-76 0 -113 66q-8 14 -18 58l-160 692q-4 18 -4 34z" />
<glyph unicode="x" horiz-adv-x="944" d="M-51 129q0 52 44 92l318 290l-152 269q-18 33 -18 66q0 52 40.5 89t92.5 37q69 0 106 -66l124 -220l275 251q39 36 86 36q51 0 90.5 -40t39.5 -92t-44 -92l-318 -289l152 -270q19 -33 19 -66q0 -52 -41 -89t-93 -37q-69 0 -106 66l-124 220l-275 -251q-39 -36 -85 -35 q-52 0 -91.5 39.5t-39.5 91.5z" />
<glyph unicode="y" horiz-adv-x="939" d="M3 -107q0 52 40 87.5t92 35.5q68 0 101 -59.5t70 -59.5q107 0 166 109q-35 -6 -70 -6q-132 0 -221.5 86.5t-89.5 217.5q0 47 13 94l128 478q25 95 120 95q53 0 92.5 -35.5t39.5 -87.5q0 -18 -6 -38l-128 -478q-4 -15 -4 -28q0 -49 56 -49q58 0 111 43.5t68 99.5l128 478 q25 95 120 95q53 0 92.5 -35.5t39.5 -87.5q0 -18 -6 -38l-223 -835q-38 -141 -160 -237t-266 -96q-101 0 -184 55q-86 58 -112 153q-7 25 -7 43z" />
<glyph unicode="z" horiz-adv-x="940" d="M-52 129q0 53 60 108l527 479h-267q-55 0 -91 35.5t-36 91.5t36 91.5t91 35.5h573q3 0 10.5 1.5t11.5 1.5q54 0 92 -38.5t38 -93.5q0 -53 -60 -108l-527 -478h267q56 0 91.5 -36t35.5 -92t-35.5 -91.5t-91.5 -35.5h-574q-3 0 -10 -1t-10 -1q-55 0 -93 38.5t-38 92.5z" />
<glyph unicode="{" horiz-adv-x="702" d="M45 485q0 56 36 91.5t92 35.5q72 0 103 86q15 60 45 179q52 206 122 306q102 145 278 145q56 0 92 -35.5t36 -91.5t-35.5 -91.5t-91.5 -35.5q-72 0 -104 -85q-5 -13 -29 -120q-70 -301 -174 -411q21 -49 22 -106q0 -105 -71 -320q-36 -108 -36 -116q0 -6 8 -19 q56 0 91.5 -36t35.5 -92t-35.5 -91.5t-91.5 -35.5q-112 0 -188 74t-76 186q0 79 54 225.5t54 224.5q-2 2 -31 8q-106 24 -106 125z" />
<glyph unicode="|" horiz-adv-x="493" d="M-73 -235q0 18 5 37l384 1432q25 95 119 95q53 0 92 -35t39 -88q0 -18 -4 -38l-385 -1431q-25 -95 -119 -96q-53 0 -92 35.5t-39 88.5z" />
<glyph unicode="}" horiz-adv-x="702" d="M-147 -231q0 56 36 92t91 36q72 0 104 85q5 13 30 120q70 301 173 410q-21 49 -21 106q0 105 70 321q36 108 36 116q0 6 -8 19q-56 0 -91.5 35.5t-35.5 91.5t36 91.5t91 35.5q112 0 188 -74t76 -186q0 -79 -54 -225.5t-54 -224.5q2 -2 31 -8q107 -23 107 -125 q0 -56 -36 -91.5t-92 -35.5q-72 0 -104 -85q-15 -60 -44 -180q-52 -206 -122 -306q-103 -145 -279 -145q-56 0 -92 35.5t-36 91.5z" />
<glyph unicode="~" horiz-adv-x="813" d="M39 482q0 86 93 142q80 49 172 48q68 0 120 -34q25 -16 93 -84q12 0 23 4l-2 -4q42 66 103 66q52 0 89.5 -44t37.5 -96q0 -85 -90 -137q-76 -45 -167 -45q-89 0 -167 69q-12 10 -31 33q-2 6 -9 18q-18 3 -20 3q-1 0 -6 -1q-38 -64 -105 -64q-52 0 -93 37.5t-41 88.5z" />
<glyph unicode="&#xa2;" horiz-adv-x="956" d="M32 392q0 200 149 367q144 161 345 201q31 119 39 138q35 72 110 72q53 0 92.5 -35t39.5 -88q0 -24 -23 -105q69 -27 127 -79q69 -64 69 -126q0 -52 -40 -90t-92 -38q-46 0 -74 28q-53 52 -57 55l-101 -375q60 44 99 44q52 0 90.5 -40.5t38.5 -91.5q0 -78 -119 -146 q-92 -53 -191 -73q-32 -119 -39 -137q-35 -72 -111 -73q-53 0 -92 35t-39 89q0 24 23 105q-115 45 -180 143q-64 96 -64 220zM286 392q0 -78 57 -114l100 375q-157 -110 -157 -261z" />
<glyph unicode="&#xa3;" horiz-adv-x="1065" d="M-51 127q0 56 38 92t94 36q76 0 104 84q1 2 46 170q-118 0 -117 95q0 68 56 87q26 9 112 9l13 48q-117 0 -117 95q0 68 56 87q26 9 112 9l32 116q31 116 130.5 194.5t218.5 78.5q83 0 157 -48q85 -54 86 -132q0 -52 -41 -90t-92 -38q-60 0 -100 54q-35 -1 -69 -26.5 t-44 -58.5q-2 -6 -14 -50q117 0 117 -96q0 -67 -55 -86q-26 -10 -110 -9l-12 -48q112 1 113 -96q0 -66 -53 -85q-28 -10 -109 -10q-38 -143 -75 -254h372q55 0 91 -36t36 -92t-36 -91.5t-91 -35.5h-716q-57 0 -95 35.5t-38 91.5z" />
<glyph unicode="&#xa5;" horiz-adv-x="1138" d="M236 1205q0 51 41 88t93 37q73 0 109 -71l196 -385l438 419q40 37 87 38q52 0 91.5 -40t39.5 -92q0 -51 -43 -90l-372 -357q57 -22 57 -88q0 -41 -27 -68t-68 -27h-133l-12 -48l43 1q134 1 134 -96q0 -41 -27 -68.5t-69 -27.5h-132l-63 -235q-25 -95 -120 -96 q-53 0 -92.5 35t-39.5 88q0 19 51 208l-43 -1q-133 -1 -133 97q0 41 26.5 68t68.5 27h132l13 48l-43 -1q-134 -1 -134 96q0 41 27 68.5t69 27.5h47l-196 383q-16 31 -16 62z" />
<glyph unicode="&#xa8;" horiz-adv-x="761" d="M211 1103q0 68 49 117t117 49q63 0 106.5 -43t43.5 -106q0 -68 -49.5 -117t-116.5 -49q-63 0 -106.5 43.5t-43.5 105.5zM569 1103q0 68 49 117t117 49q63 0 106.5 -43t43.5 -106q0 -68 -49.5 -117t-116.5 -49q-63 0 -106.5 43.5t-43.5 105.5z" />
<glyph unicode="&#xa9;" horiz-adv-x="1415" d="M72 516q0 315 261 565q259 247 575 247q229 0 380.5 -144t151.5 -372q0 -315 -262 -565q-258 -247 -574 -247q-230 0 -380 143q-152 145 -152 373zM262 516q0 -149 97 -238q94 -87 245 -87q237 0 439 191q206 195 206 430q0 149 -97 238q-94 87 -244 87q-237 0 -440 -191 q-206 -195 -206 -430zM351 594q0 183 148 325q146 140 329 140q182 0 271 -130q27 -39 27 -76q0 -52 -40.5 -90t-92.5 -38q-46 0 -85.5 40t-79.5 40q-78 0 -150.5 -67t-72.5 -144q0 -72 79 -71q52 0 114.5 40.5t97.5 40.5q52 0 90 -40.5t38 -91.5q0 -87 -131 -151 q-110 -53 -209 -53q-142 0 -237.5 92t-95.5 234z" />
<glyph unicode="&#xab;" horiz-adv-x="938" d="M40 484q0 42 40 94l263 342q40 52 98 53q52 0 92 -38.5t40 -90.5q0 -41 -29 -78l-238 -310l69 -300q4 -17 4 -34q0 -53 -38.5 -87.5t-92.5 -34.5q-98 0 -120 99l-79 338q-9 42 -9 47zM457 484q0 42 40 94l263 342q40 52 98 53q52 0 92 -38.5t40 -90.5q0 -41 -28 -78 l-238 -310l69 -300q4 -17 4 -34q0 -53 -38.5 -87.5t-92.5 -34.5q-98 0 -120 99l-79 338q-10 42 -10 47z" />
<glyph unicode="&#xad;" horiz-adv-x="702" d="M45 485q0 56 36 91.5t92 35.5h357q55 0 91.5 -35.5t36.5 -91.5t-36.5 -91.5t-91.5 -35.5h-357q-56 0 -92 35.5t-36 91.5z" />
<glyph unicode="&#xae;" horiz-adv-x="1415" d="M72 516q0 315 261 565q258 247 575 247q229 0 380 -143q153 -146 152 -373q0 -315 -262 -565q-258 -247 -574 -247q-230 0 -380 143q-152 146 -152 373zM262 516q0 -149 97 -238q94 -87 245 -87q144 0 287 79q-15 -4 -31 -4q-48 0 -94 47q-11 11 -69 85 q-29 -130 -129 -130q-53 0 -92 35t-39 88q0 18 4 38l142 529q28 102 126 101h148q103 0 172.5 -67.5t69.5 -169.5q0 -88 -52 -166q-51 -75 -132 -115q78 -100 78 -147q0 -44 -31 -78q126 90 202 215q85 138 85 281q0 149 -95.5 237t-245.5 88q-237 0 -440 -191 q-206 -194 -206 -430zM783 755q49 17 70 60h-53z" />
<glyph unicode="&#xb4;" horiz-adv-x="586" d="M205 1086q0 79 77 112l271 119q28 13 55 13q52 0 88.5 -40.5t36.5 -92.5q0 -79 -78 -112l-270 -119q-29 -13 -56 -13q-52 0 -88 40.5t-36 92.5z" />
<glyph unicode="&#xb8;" horiz-adv-x="679" d="M-122 -136q0 52 39.5 87.5t92.5 35.5q91 0 117 -90q41 1 73 31.5t33 71.5q-56 0 -91.5 36t-35.5 91q0 56 35.5 92t91.5 36q112 0 188.5 -74t76.5 -187q0 -139 -110.5 -245.5t-250.5 -106.5q-87 0 -157.5 48.5t-95.5 131.5q-6 22 -6 42z" />
<glyph unicode="&#xbb;" horiz-adv-x="938" d="M-52 128q0 41 29 79l239 310l-70 299q-4 17 -4 33q0 53 39 88.5t92 35.5q98 0 121 -100l78 -338q10 -42 10 -47q0 -42 -41 -94l-262 -342q-40 -52 -98 -52q-52 0 -92.5 38t-40.5 90zM366 128q0 41 28 79l239 310l-70 299q-4 17 -4 33q0 53 39 88.5t92 35.5q98 0 121 -100 l79 -338q10 -42 10 -47q0 -42 -41 -94l-262 -342q-40 -52 -98 -52q-52 0 -92.5 38t-40.5 90z" />
<glyph unicode="&#x106;" horiz-adv-x="1262" d="M74 525q0 286 220 522q215 229 501 273q-78 35 -78 124q0 79 78 112l270 119q28 13 56 13q52 0 88 -40.5t36 -92.5q0 -79 -77 -112l-260 -115q126 -2 243 -54q128 -57 190 -155q27 -42 27 -76q0 -52 -40.5 -90t-92.5 -38q-42 0 -87 41q-69 64 -88 76q-65 41 -159 42 q-208 0 -389 -170q-184 -173 -184 -379q0 -125 81 -199q78 -72 204 -71q95 0 182 37q56 24 161 92q45 29 80 30q51 0 89.5 -40.5t38.5 -91.5t-51 -97q-90 -82 -234 -135q-140 -50 -266 -50q-232 0 -384 146q-155 148 -155 379z" />
<glyph unicode="&#x107;" horiz-adv-x="956" d="M32 392q0 200 149 367q144 161 345 201q-84 33 -84 126q0 79 77 112l271 119q28 13 55 13q52 0 88.5 -40.5t36.5 -92.5q0 -79 -78 -112l-259 -115q94 -2 180 -40q92 -43 141 -116q26 -41 26 -77q0 -52 -40 -90t-92 -38q-48 0 -99 53.5t-123 53.5q-122 0 -229 -101 q-111 -102 -111 -223q0 -138 148 -137q74 0 163 53t118 53q52 0 90.5 -40.5t38.5 -91.5q0 -52 -51 -98q-67 -59 -169 -95q-99 -36 -190 -36q-173 0 -286 110q-116 111 -116 282z" />
<glyph unicode="&#x10c;" horiz-adv-x="1262" d="M74 525q0 313 258 559q255 244 568 244q-3 2 -24 20q-48 36 -139 112q-49 45 -49 96q0 52 39 92.5t90 40.5q50 0 160 -96q164 95 202 96q52 0 88.5 -41t36.5 -93q0 -69 -66 -107l-201 -113q-9 -6 -28 -16q226 -40 332 -200q26 -41 26 -76q0 -52 -40 -90t-92 -38 q-43 0 -87 41q-67 64 -85 76q-65 41 -162 42q-208 0 -389 -170q-184 -173 -184 -379q0 -125 81 -199q78 -72 204 -71q146 0 343 129q45 29 80 30q51 0 89.5 -40.5t38.5 -91.5t-51 -97q-90 -82 -234 -135q-140 -50 -266 -50q-232 0 -385 146q-154 148 -154 379z" />
<glyph unicode="&#x10d;" horiz-adv-x="956" d="M32 392q0 227 185 405q184 175 412 173q-10 5 -20 13l-146 119q-49 40 -49 97q0 52 38.5 92t89.5 40q40 0 87 -34q5 -3 73 -62q165 95 202 96q52 0 88.5 -41t36.5 -93q0 -61 -66 -107q-77 -53 -119 -77q-73 -41 -131 -51q89 -17 170 -76q97 -70 97 -149q0 -52 -40 -90 t-92 -38q-49 0 -99.5 53.5t-122.5 53.5q-122 0 -231 -101.5t-109 -222.5q0 -138 148 -137q74 0 163 53t118 53q52 0 90.5 -40.5t38.5 -91.5q0 -53 -51 -98q-149 -131 -359 -131q-173 0 -286 110q-116 111 -116 282z" />
<glyph unicode="&#x110;" horiz-adv-x="1379" d="M37 608q0 74 78 113q10 5 141 44l123 461q27 103 134 102h349q232 0 385 -145q154 -149 154 -380q0 -312 -258 -559q-255 -244 -569 -244l-352 -1q-56 0 -94.5 34.5t-38.5 89.5q0 18 9 52l81 302q-10 -1 -18 -1q-52 0 -88 39.5t-36 92.5zM383 255h191q208 0 389 169 q184 173 184 379q0 125 -80 199q-78 72 -205 72h-260l-60 -223q9 1 19 1q52 0 87 -39.5t35 -92.5q0 -74 -76 -112q-10 -5 -142 -45z" />
<glyph unicode="&#x111;" horiz-adv-x="1142" d="M24 363q0 235 205 424q200 184 437 183q66 0 136 -19l10 35h-146q-41 0 -68 27t-27 69q0 41 27 68t68 27h197q18 75 39 105q32 47 95 47q53 0 92.5 -35.5t39.5 -87.5q0 -14 -3 -29h44q129 2 129 -95q0 -41 -27 -68.5t-69 -27.5h-128l-239 -891q-25 -95 -119 -96 q-67 0 -107 51q-106 -50 -215 -50q-160 0 -265.5 102.5t-105.5 260.5zM278 362q0 -107 117 -107q91 0 174 68q82 66 106 155l61 229q-32 9 -70 9q-123 0 -236.5 -91.5t-143.5 -211.5q-8 -30 -8 -51z" />
<glyph unicode="&#x160;" horiz-adv-x="901" d="M-10 282q0 52 39 87.5t93 35.5q72 0 109.5 -75t104.5 -75q92 0 177 78t85 170q0 94 -102 94q-132 0 -221 85.5t-89 217.5q0 170 135.5 300t306.5 128q-10 5 -20 13l-147 119q-49 40 -49 96q0 52 38.5 92.5t90.5 40.5q39 0 87 -35l73 -61q167 95 201 96q52 0 89 -41 t37 -93q0 -63 -66 -107q-90 -60 -124 -78q-76 -42 -135 -51q169 -40 217 -198q6 -23 7 -43q0 -52 -39.5 -88t-92.5 -36q-47 0 -74 25q-17 16 -44 65q-15 29 -53 30q-64 0 -123.5 -55.5t-59.5 -118.5q0 -49 55 -49q152 0 254.5 -98t102.5 -250q0 -196 -161 -351 q-157 -152 -356 -152q-119 0 -210 63q-97 66 -130 176q-6 24 -6 43z" />
<glyph unicode="&#x161;" horiz-adv-x="748" d="M-14 265q0 54 37 89t92 35q57 0 85 -31q19 -21 39 -82q7 -21 33 -21q49 0 97 43.5t48 92.5q0 25 -37 27q-107 7 -172 67q-69 64 -70 170q0 126 100.5 222.5t226.5 92.5q-10 5 -20 13l-146 119q-49 40 -49 97q0 52 38.5 92t90.5 40q40 0 86 -35q37 -30 73 -61l136 77 q33 19 66 19q52 0 88.5 -41t36.5 -93q0 -64 -66 -107q-103 -68 -127 -81q-80 -44 -140 -49q67 -19 115 -72q51 -57 51 -124q0 -52 -40 -87.5t-93 -35.5q-80 0 -112 74q-39 -6 -58 -43q119 -4 197.5 -83.5t78.5 -197.5q0 -154 -122.5 -272.5t-276.5 -118.5q-115 0 -199 75 q-87 78 -87 190z" />
<glyph unicode="&#x17d;" horiz-adv-x="1200" d="M-57 109q0 57 55 111l894 854h-518q-56 0 -91.5 35.5t-35.5 91.5t35.5 91.5t91.5 35.5h421q-29 14 -167 132q-49 41 -49 96q0 52 39 92.5t90 40.5q41 0 87 -35q37 -30 74 -61l135 76q33 19 66 20q52 0 88.5 -41t36.5 -93q0 -65 -66 -107q-52 -33 -105 -67 q-62 -37 -113 -53h298q57 0 97 -25q47 -29 47 -84q0 -57 -56 -110l-893 -854h518q56 0 91.5 -36t35.5 -92t-36 -91.5t-91 -35.5h-835q-57 0 -97 25q-47 30 -47 84z" />
<glyph unicode="&#x17e;" horiz-adv-x="962" d="M-57 109q0 59 59 112l544 495h-267q-56 0 -91.5 35.5t-35.5 91.5t35.5 91.5t91.5 35.5h302q-29 14 -167 132q-49 41 -49 97q0 52 38.5 92t90.5 40q40 0 87 -35q37 -30 73 -61l136 77q33 19 65 19q52 0 89 -41t37 -93q0 -65 -66 -107q-52 -33 -105 -67q-62 -37 -112 -53 h178q56 0 97 -25q47 -30 47 -84q0 -59 -59 -112l-544 -494h267q56 0 91.5 -36t35.5 -92t-35.5 -91.5t-91.5 -35.5h-597q-57 0 -97 25q-47 31 -47 84z" />
<glyph unicode="&#x2c6;" horiz-adv-x="704" d="M301 1444q0 64 66 106q110 72 135 84q86 47 147 47q43 0 72 -24l147 -119q49 -40 49 -96q0 -52 -38.5 -92t-90.5 -40q-41 0 -87 33q-37 31 -73 62l-136 -76q-33 -19 -66 -19q-51 0 -88 41t-37 93z" />
<glyph unicode="&#x2da;" horiz-adv-x="618" d="M297 1416q0 114 103 195q97 77 214 78q91 0 157 -54q69 -57 69 -147q0 -115 -104 -195q-95 -75 -212 -75q-92 0 -157 52q-70 56 -70 146zM488 1416q11 -6 36 -7q34 0 76 23q48 25 49 56q-14 10 -35 10q-34 0 -77 -24q-48 -27 -49 -58z" />
<glyph unicode="&#x2dc;" horiz-adv-x="818" d="M316 1496q0 86 93 142q80 49 172 48q68 0 119 -34q25 -17 94 -84h1q11 0 21 4l-1 -4q42 66 102 66q52 0 89.5 -44t37.5 -96q0 -85 -90 -137q-76 -45 -167 -45q-52 0 -111 29q-61 29 -87 73q-2 6 -8 18q-18 3 -20 3t-7 -1q-38 -64 -105 -64q-52 0 -92.5 37.5t-40.5 88.5z " />
<glyph unicode="&#x2000;" horiz-adv-x="844" />
<glyph unicode="&#x2001;" horiz-adv-x="1690" />
<glyph unicode="&#x2002;" horiz-adv-x="844" />
<glyph unicode="&#x2003;" horiz-adv-x="1690" />
<glyph unicode="&#x2004;" horiz-adv-x="563" />
<glyph unicode="&#x2005;" horiz-adv-x="422" />
<glyph unicode="&#x2006;" horiz-adv-x="281" />
<glyph unicode="&#x2007;" horiz-adv-x="281" />
<glyph unicode="&#x2008;" horiz-adv-x="210" />
<glyph unicode="&#x2009;" horiz-adv-x="338" />
<glyph unicode="&#x200a;" horiz-adv-x="93" />
<glyph unicode="&#x2010;" horiz-adv-x="702" d="M45 485q0 56 36 91.5t92 35.5h357q55 0 91.5 -35.5t36.5 -91.5t-36.5 -91.5t-91.5 -35.5h-357q-56 0 -92 35.5t-36 91.5z" />
<glyph unicode="&#x2011;" horiz-adv-x="702" d="M45 485q0 56 36 91.5t92 35.5h357q55 0 91.5 -35.5t36.5 -91.5t-36.5 -91.5t-91.5 -35.5h-357q-56 0 -92 35.5t-36 91.5z" />
<glyph unicode="&#x2012;" horiz-adv-x="702" d="M45 485q0 56 36 91.5t92 35.5h357q55 0 91.5 -35.5t36.5 -91.5t-36.5 -91.5t-91.5 -35.5h-357q-56 0 -92 35.5t-36 91.5z" />
<glyph unicode="&#x2013;" horiz-adv-x="821" d="M45 485q0 56 36 91.5t92 35.5h477q55 0 91 -35.5t36 -91.5t-36 -91.5t-91 -35.5h-477q-56 0 -92 35.5t-36 91.5z" />
<glyph unicode="&#x2014;" horiz-adv-x="1298" d="M45 485q0 56 36 91.5t92 35.5h954q55 0 91 -35.5t36 -91.5t-36 -91.5t-91 -35.5h-954q-56 0 -92 35.5t-36 91.5z" />
<glyph unicode="&#x2018;" horiz-adv-x="446" d="M172 958q0 93 104 237q110 151 198 151q52 0 90.5 -40.5t38.5 -91.5q0 -52 -51 -98q-91 -83 -129 -186q-35 -95 -120 -96q-52 0 -91.5 35.5t-39.5 88.5z" />
<glyph unicode="&#x2019;" horiz-adv-x="446" d="M165 950q0 52 50 97q91 83 129 187q35 95 120 95q53 0 92 -35t39 -88q0 -93 -104 -237q-110 -151 -198 -151q-51 0 -89.5 40.5t-38.5 91.5z" />
<glyph unicode="&#x201a;" horiz-adv-x="446" d="M-123 -124q0 52 51 98q91 83 128 186q35 95 120 95q53 0 92.5 -35t39.5 -88q0 -93 -105 -237q-109 -151 -198 -151q-51 0 -89.5 40.5t-38.5 91.5z" />
<glyph unicode="&#x201c;" horiz-adv-x="804" d="M172 958q0 93 104 237q110 151 198 151q52 0 90.5 -40.5t38.5 -91.5q0 -52 -51 -98q-91 -83 -129 -186q-35 -95 -120 -96q-52 0 -91.5 35.5t-39.5 88.5zM530 958q0 93 104 237q110 151 198 151q52 0 90.5 -40.5t38.5 -91.5q0 -52 -51 -98q-91 -83 -129 -186 q-35 -95 -120 -96q-52 0 -91.5 35.5t-39.5 88.5z" />
<glyph unicode="&#x201d;" horiz-adv-x="804" d="M165 950q0 52 50 97q91 83 129 187q35 95 120 95q53 0 92 -35t39 -88q0 -93 -104 -237q-110 -151 -198 -151q-51 0 -89.5 40.5t-38.5 91.5zM523 950q0 52 50 97q91 83 129 187q35 95 120 95q53 0 92 -35t39 -88q0 -93 -104 -237q-110 -151 -198 -151q-51 0 -89.5 40.5 t-38.5 91.5z" />
<glyph unicode="&#x201e;" horiz-adv-x="804" d="M-123 -124q0 52 51 98q91 83 128 186q35 95 120 95q53 0 92.5 -35t39.5 -88q0 -93 -105 -237q-109 -151 -198 -151q-51 0 -89.5 40.5t-38.5 91.5zM235 -124q0 52 51 98q91 83 128 186q35 95 120 95q53 0 92.5 -35t39.5 -88q0 -93 -105 -237q-109 -151 -198 -151 q-51 0 -89.5 40.5t-38.5 91.5z" />
<glyph unicode="&#x2022;" d="M59 671q0 43 9 81q14 52 47 97q41 56 85 55q80 0 81 -130q0 -68 -36 -142q-42 -87 -104 -87q-82 0 -82 126zM60 274q0 144 95 221q87 71 235 70q61 0 114 -14q112 -30 197 -113q95 -92 95 -199q0 -71 -45 -149q-52 -90 -116 -90q-31 0 -70.5 30.5t-71.5 30.5 q-17 0 -50.5 -10t-51.5 -10q-40 0 -83.5 46.5t-84.5 46.5q-10 0 -31.5 -3.5t-32.5 -3.5q-99 1 -99 147zM321 737q0 42 10 81q14 51 47 97q41 56 85 55q80 0 80 -131q0 -69 -36 -141q-42 -87 -104 -88q-82 0 -82 127zM575 669q0 43 10 81q15 51 47 96q41 56 85 57 q80 0 80 -132q0 -69 -36 -142q-42 -87 -104 -87q-82 1 -82 127zM769 481q0 42 10 81q14 52 47 97q41 56 85 55q80 0 80 -130q0 -70 -35 -143q-43 -87 -104 -87q-83 0 -83 127z" />
<glyph unicode="&#x2026;" horiz-adv-x="1360" d="M-5 150q0 68 50 116t117 48q64 0 108 -43t44 -106q0 -67 -50 -116t-118 -49q-63 0 -107 43.5t-44 106.5zM433 150q0 68 49.5 116t117.5 48q64 0 108 -43t44 -106q0 -67 -50.5 -116t-117.5 -49q-63 0 -107 43.5t-44 106.5zM870 150q0 68 50 116t117 48q64 0 108 -43 t44 -106q0 -67 -50 -116t-118 -49q-63 0 -107 43.5t-44 106.5z" />
<glyph unicode="&#x202f;" horiz-adv-x="338" />
<glyph unicode="&#x2039;" horiz-adv-x="517" d="M44 478q0 68 60 153l108 130q41 54 128 159q44 52 97 53q52 0 92.5 -38.5t40.5 -90.5q0 -41 -28 -78l-239 -310l69 -300q4 -17 4 -34q0 -53 -38.5 -87.5t-92.5 -34.5q-91 0 -120 99q-15 61 -45 184q-36 145 -36 195z" />
<glyph unicode="&#x203a;" horiz-adv-x="517" d="M-52 126q0 41 29 78l238 311l-69 299q-4 17 -4 34q0 53 38.5 87.5t92.5 34.5q91 0 120 -98q15 -61 45 -185q36 -145 36 -195q0 -68 -60 -152l-109 -131q-41 -54 -127 -159q-44 -52 -98 -52q-52 0 -92 38t-40 90z" />
<glyph unicode="&#x205f;" horiz-adv-x="422" />
<glyph unicode="&#x20ac;" horiz-adv-x="1312" d="M-8 545q0 42 26.5 68.5t68.5 26.5h35l11 50q-77 12 -77 93q0 42 27 69t68 27h58q111 195 308 320q205 130 422 129q130 0 246 -51q126 -56 194 -158q27 -40 27 -76q0 -52 -40.5 -90t-92.5 -38q-44 0 -86 41q-66 64 -85 76q-64 41 -163 42q-228 0 -414 -195h421 q42 0 69 -26.5t27 -69.5q0 -42 -26.5 -68.5t-69.5 -26.5h-546l-17 -48h381q41 0 68 -26.5t27 -68.5t-27 -69t-68 -27h-389q23 -95 102 -147q72 -48 174 -47q154 0 343 129q43 29 80 30q52 0 90.5 -40.5t38.5 -91.5q0 -53 -51 -97q-96 -84 -234.5 -134.5t-266.5 -50.5 q-208 0 -356 121q-153 125 -178 328h-30q-42 0 -68.5 27t-26.5 69z" />
<glyph unicode="&#x2122;" horiz-adv-x="1463" d="M237 1201q0 56 36 91.5t91 35.5h358q55 0 91 -35.5t36 -91.5q0 -26 -9 -50q56 115 64 126q47 72 110 73q74 0 106 -87q10 -29 29 -148l111 158q52 74 120 74q53 0 84 -43q29 -39 27 -93v-16l-24 -536q-2 -54 -37.5 -88t-89.5 -34q-55 0 -91.5 35.5t-36.5 90.5q0 8 5 104 q-48 -69 -61 -85q-43 -47 -88 -47q-50 0 -86 52q-29 42 -38 98l-87 -177q-36 -73 -109 -73q-52 0 -93 36.5t-41 88.5q0 29 15 60l201 411q-27 -45 -84 -55q-17 -3 -106 -2l-118 -442q-25 -95 -120 -96q-53 0 -92 35t-39 88q0 18 5 38l101 377q-140 0 -140 127z" />
<glyph unicode="&#xe000;" horiz-adv-x="975" d="M0 975h975v-975h-975v975z" />
</font>
</defs>
</svg>
